Coordinates
version=1
nRows=11
nColumns=36
inDegrees=yes

Units are S.I. units (second, meters, Newtons, ...)
If the header above contains a line with 'inDegrees', this indicates whether rotational values are in degrees (yes) or radians (no).

endheader
time	pelvis_tilt	pelvis_list	pelvis_rotation	pelvis_tx	pelvis_ty	pelvis_tz	hip_flexion_r	hip_adduction_r	hip_rotation_r	knee_angle_r	knee_angle_r_beta	ankle_angle_r	subtalar_angle_r	mtp_angle_r	hip_flexion_l	hip_adduction_l	hip_rotation_l	knee_angle_l	knee_angle_l_beta	ankle_angle_l	subtalar_angle_l	mtp_angle_l	lumbar_extension	lumbar_bending	lumbar_rotation	arm_flex_r	arm_add_r	arm_rot_r	elbow_flex_r	pro_sup_r	arm_flex_l	arm_add_l	arm_rot_l	elbow_flex_l	pro_sup_l
      1.02000000	      4.42756407	      1.25975417	      6.07612682	      1.14439850	      1.04091580	     -0.21610554	     17.21253690	     -1.09978112	     -7.25429826	      4.56345871	      0.07964738	      0.22866946	      2.14136189	     -7.34872392	    -13.44370337	      4.56850442	      8.87217559	      6.93078635	      0.12096504	     18.47107009	      7.12894370	     -7.34872392	     -8.59842324	     -1.43776906	    -11.80592279	    -11.92681401	     -6.07327884	     -3.40624400	     26.13944973	    102.20783641	     13.54430538	    -16.67915880	      6.18909742	     55.34720070	     95.57623086
      1.03000000	      3.94133113	      1.27270678	      6.18344460	      1.15705552	      1.03820462	     -0.21552467	     17.18094854	     -1.05565339	     -7.26649473	      1.93427897	      0.03375954	      1.19529708	      3.24178933	     -7.35018888	    -13.47842681	      4.51005684	      8.74287792	      7.36030734	      0.12846160	     19.07671769	      7.22962737	     -7.35018888	     -8.03176422	     -1.41879206	    -11.82378117	    -12.29143952	     -6.11001108	     -3.66177222	     25.93756207	    102.13717778	     13.66157668	    -16.64396456	      6.21854463	     56.05962235	     95.57820333
      1.04000000	      3.45661542	      1.29547203	      6.12090588	      1.16951350	      1.03541735	     -0.21466445	     17.61185939	     -1.05723191	     -7.58596038	      0.64600086	      0.01127484	      2.92541316	      4.88304412	     -7.35212035	    -13.43262468	      4.50306987	      8.53800593	      7.99319455	      0.13950756	     19.96164746	      7.38201247	     -7.35212035	     -7.49260554	     -1.42206198	    -11.77793298	    -12.45742065	     -6.08156285	     -4.04488812	     25.76375278	    102.03393991	     13.62906356	    -16.70096915	      6.20726171	     56.98834828	     95.58606662
      1.05000000	      3.07016124	      1.23556465	      6.21596805	      1.18216681	      1.03295450	     -0.21406168	     18.25284308	     -1.15266914	     -9.92389867	      0.42399650	      0.00740013	      5.61707964	      9.46582149	     -7.35854047	    -13.41383917	      4.32707018	      8.07504811	      8.72095261	      0.15220934	     20.79448646	      8.26167752	     -7.35854047	     -7.05153473	     -1.30939724	    -12.00719586	    -12.57542250	     -6.08701395	     -4.75876579	     25.66225810	    101.81235431	     13.36872245	    -16.65586586	      5.74942838	     57.97844959	     95.40889271
      1.06000000	      2.68410806	      1.17696987	      6.16748531	      1.19475776	      1.03058635	     -0.21314096	     18.73880138	     -1.09997954	    -10.03123692	      0.32681171	      0.00570394	      7.02724902	     10.69475815	     -7.36162496	    -13.41227982	      4.22629947	      8.05681695	      9.45100341	      0.16495113	     21.27398058	      8.07886526	     -7.36162496	     -6.61101593	     -1.21723805	    -11.94286776	    -12.68780054	     -6.11787754	     -4.95372331	     25.50369370	    101.71816699	     13.31203425	    -16.63398351	      5.74010008	     58.60711459	     95.38804831
      1.07000000	      2.59088962	      0.98213174	      6.17085563	      1.20763864	      1.02882409	     -0.21232198	     18.74046619	     -0.85691657	     -9.81421713	      0.30596668	      0.00534013	      7.61982531	     11.05071424	     -7.36257777	    -13.71273486	      3.93478998	      8.09826746	     10.18983160	      0.17784611	     21.51681186	      7.79924708	     -7.36257777	     -6.48234200	     -0.90646074	    -11.79977197	    -12.78098145	     -6.21332751	     -5.06479985	     25.32887963	    101.66862001	     13.33746353	    -16.45126280	      5.72504509	     59.08052658	     95.41560604
      1.08000000	      2.61800844	      0.73146437	      6.24293387	      1.22086723	      1.02746615	     -0.21154622	     18.44959119	     -0.54699815	     -9.42784442	      0.34449699	      0.00601261	      7.81687188	     11.25667499	     -7.36359852	    -14.07928381	      3.55414702	      8.14663013	     11.06259735	      0.19307875	     21.74201988	      7.46083513	     -7.36359852	     -6.45473262	     -0.51365273	    -11.79516588	    -12.79824772	     -6.29908212	     -5.23487611	     25.18357082	    101.60543275	     13.19952039	    -16.30134446	      5.66896182	     59.52929173	     95.44485224
      1.09000000	      2.74309406	      0.39718825	      6.37226429	      1.23448373	      1.02648098	     -0.21078281	     17.91803625	     -0.12774524	     -8.92818843	      0.44476889	      0.00776268	      7.55711260	     11.20417998	     -7.36431212	    -14.52507078	      3.04907183	      8.26233200	     11.97601248	      0.20902085	     21.71392114	      7.21553911	     -7.36431212	     -6.49901932	     -0.00136689	    -11.81116334	    -12.83699487	     -6.39094600	     -5.38073526	     25.05302915	    101.55272371	     12.99201348	    -16.08379473	      5.61845285	     59.87406204	     95.47221714
      1.10000000	      3.07710452	      0.00493503	      6.42864137	      1.24831039	      1.02593660	     -0.20974563	     17.08184875	      0.50957552	     -7.60901238	      0.56103431	      0.00979190	      6.05541169	      8.80107747	     -7.36854754	    -15.14473703	      2.44632807	      8.08120999	     12.98176449	      0.22657453	     21.67154514	      6.85602252	     -7.36854754	     -6.79211377	      0.57339358	    -12.06410149	    -12.62579765	     -6.41557809	     -5.99611292	     25.00878489	    101.36368838	     12.26967281	    -15.86088028	      4.70552993	     60.87599812	     95.54977072
      1.11000000	      3.27908905	     -0.37147199	      6.45728188	      1.26240242	      1.02544967	     -0.20868841	     16.36088355	      1.12803325	     -6.40832240	      0.77565673	      0.01353776	      4.74257296	      6.79616962	     -7.37428146	    -15.52278900	      1.87962368	      7.73865988	     14.17234903	      0.24735415	     21.35951482	      6.60732538	     -7.37428146	     -6.87500925	      1.11776152	    -12.07631914	    -12.56156838	     -6.53531941	     -6.15178618	     24.95614792	    101.24934048	     11.78025018	    -15.56805027	      4.30923883	     61.20050146	     95.64781350
      1.12000000	      3.57127747	     -0.84378928	      6.54862288	      1.27683029	      1.02534091	     -0.20764003	     15.57101736	      1.81743522	     -6.34019733	      1.08542993	      0.01894433	      3.71973565	      6.34040847	     -7.37602489	    -15.91770257	      1.16977502	      7.33971777	     15.50528051	      0.27061820	     20.73375350	      6.26189974	     -7.37602489	     -7.01003631	      1.78925453	    -12.00697533	    -12.52367231	     -6.64856633	     -6.22417746	     24.92103278	    101.17888219	     11.33413022	    -15.26495245	      4.26067801	     61.30716346	     95.66321251
